<svg xmlns="http://www.w3.org/2000/svg" xmlns:xlink="http://www.w3.org/1999/xlink" version="1.1"
     width="40"
     height="40"
     viewBox="-8.5 -8.5 42 42">
    <defs/>
    <g>
        <circle cx="12.5" cy="12.5" r="20" fill="white" stroke="currentColor"/>
        <path d="M -0.23 9.09 C -0.21 8.55 0.23 8.13 0.75 8.13 L 23.25 8.13 C 23.77 8.13 24.21 8.55 24.24 9.09 L 24.26 14.88 C 24.26 15.15 24.15 15.41 23.96 15.6 C 23.77 15.79 23.51 15.9 23.25 15.89 L 0.75 15.89 C 0.21 15.89 -0.23 15.44 -0.23 14.88 Z M 2.73 14.05 C 2.73 13.74 2.57 13.44 2.3 13.29 C 2.03 13.13 1.7 13.13 1.43 13.29 C 1.17 13.44 1 13.74 1 14.05 C 1 14.37 1.17 14.66 1.43 14.81 C 1.7 14.97 2.03 14.97 2.3 14.81 C 2.57 14.66 2.73 14.37 2.73 14.05 Z M 17.54 13.98 C 17.39 13.98 17.27 14.1 17.27 14.25 C 17.27 14.41 17.39 14.53 17.54 14.53 L 22.48 14.53 C 22.63 14.53 22.75 14.41 22.75 14.25 C 22.75 14.1 22.63 13.98 22.48 13.98 Z M 17.54 13.02 C 17.39 13.02 17.27 13.14 17.27 13.3 C 17.27 13.45 17.39 13.57 17.54 13.57 L 22.48 13.57 C 22.63 13.57 22.75 13.45 22.75 13.3 C 22.75 13.14 22.63 13.02 22.48 13.02 Z M 17.54 12.04 C 17.39 12.04 17.27 12.16 17.27 12.31 C 17.27 12.47 17.39 12.59 17.54 12.59 L 22.48 12.59 C 22.63 12.59 22.75 12.47 22.75 12.31 C 22.75 12.16 22.63 12.04 22.48 12.04 Z M -0.26 0.7 C -0.23 0.16 0.2 -0.26 0.73 -0.26 L 23.22 -0.26 C 23.75 -0.26 24.18 0.16 24.21 0.7 L 24.23 6.49 C 24.23 6.76 24.13 7.02 23.93 7.21 C 23.74 7.4 23.49 7.5 23.22 7.49 L 0.73 7.49 C 0.18 7.49 -0.26 7.04 -0.26 6.49 Z M 2.7 5.66 C 2.7 5.34 2.54 5.05 2.27 4.89 C 2 4.74 1.67 4.74 1.41 4.89 C 1.14 5.05 0.97 5.34 0.97 5.66 C 0.97 5.97 1.14 6.26 1.41 6.42 C 1.67 6.58 2 6.58 2.27 6.42 C 2.54 6.26 2.7 5.97 2.7 5.66 Z M 17.52 5.58 C 17.37 5.58 17.25 5.71 17.25 5.86 C 17.25 6.01 17.37 6.13 17.52 6.13 L 22.46 6.13 C 22.61 6.13 22.73 6.01 22.73 5.86 C 22.73 5.71 22.61 5.58 22.46 5.58 Z M 17.52 4.62 C 17.37 4.62 17.25 4.75 17.25 4.9 C 17.25 5.05 17.37 5.18 17.52 5.18 L 22.46 5.18 C 22.61 5.18 22.73 5.05 22.73 4.9 C 22.73 4.75 22.61 4.62 22.46 4.62 Z M 17.52 3.64 C 17.37 3.64 17.25 3.77 17.25 3.92 C 17.25 4.07 17.37 4.2 17.52 4.2 L 22.46 4.2 C 22.61 4.2 22.73 4.07 22.73 3.92 C 22.73 3.77 22.61 3.64 22.46 3.64 Z M -0.23 17.45 C -0.21 16.92 0.23 16.5 0.75 16.5 L 23.25 16.5 C 23.77 16.5 24.21 16.92 24.24 17.45 L 24.26 23.25 C 24.26 23.52 24.15 23.78 23.96 23.97 C 23.77 24.16 23.51 24.26 23.25 24.25 L 0.75 24.25 C 0.21 24.25 -0.23 23.8 -0.23 23.25 Z M 2.73 22.41 C 2.73 22.1 2.57 21.81 2.3 21.65 C 2.03 21.49 1.7 21.49 1.43 21.65 C 1.17 21.81 1 22.1 1 22.41 C 1 22.73 1.17 23.02 1.43 23.18 C 1.7 23.34 2.03 23.34 2.3 23.18 C 2.57 23.02 2.73 22.73 2.73 22.41 Z M 17.54 22.34 C 17.39 22.34 17.27 22.46 17.27 22.62 C 17.27 22.77 17.39 22.89 17.54 22.89 L 22.48 22.89 C 22.63 22.89 22.75 22.77 22.75 22.62 C 22.75 22.46 22.63 22.34 22.48 22.34 Z M 17.54 21.38 C 17.39 21.38 17.27 21.51 17.27 21.66 C 17.27 21.81 17.39 21.94 17.54 21.94 L 22.48 21.94 C 22.63 21.94 22.75 21.81 22.75 21.66 C 22.75 21.51 22.63 21.38 22.48 21.38 Z M 17.54 20.4 C 17.39 20.4 17.27 20.52 17.27 20.68 C 17.27 20.83 17.39 20.95 17.54 20.95 L 22.48 20.95 C 22.63 20.95 22.75 20.83 22.75 20.68 C 22.75 20.52 22.63 20.4 22.48 20.4 Z"
              fill="currentColor" stroke="none" pointer-events="all"/>
    </g>
</svg>