<svg xmlns="http://www.w3.org/2000/svg" xmlns:xlink="http://www.w3.org/1999/xlink" version="1.1"
     viewBox="-2 -12 32 32"
     width="30"
     height="30"
>
    <defs/>
    <g>
        <circle cx="14" cy="4" r="15" fill="white" stroke="currentColor"/>
        <path d="M 0.5 0.95 C 0.53 0.39 1.01 -0.05 1.59 -0.05 L 26.38 -0.05 C 26.96 -0.05 27.44 0.39 27.47 0.95 L 27.5 6.99 C 27.5 7.27 27.38 7.55 27.17 7.74 C 26.96 7.94 26.68 8.05 26.38 8.04 L 1.59 8.04 C 1.3 8.04 1.02 7.93 0.82 7.73 C 0.61 7.54 0.5 7.27 0.5 6.99 Z M 3.77 6.12 C 3.77 5.62 3.34 5.2 2.81 5.2 C 2.29 5.2 1.86 5.62 1.86 6.12 C 1.86 6.63 2.29 7.04 2.81 7.04 C 3.34 7.04 3.77 6.63 3.77 6.12 Z M 20.1 6.05 C 19.93 6.05 19.8 6.17 19.8 6.33 C 19.8 6.49 19.93 6.62 20.1 6.62 L 25.54 6.62 C 25.71 6.62 25.84 6.49 25.84 6.33 C 25.84 6.17 25.71 6.05 25.54 6.05 Z M 20.1 5.05 C 19.93 5.05 19.8 5.18 19.8 5.34 C 19.8 5.5 19.93 5.62 20.1 5.62 L 25.54 5.62 C 25.71 5.62 25.84 5.5 25.84 5.34 C 25.84 5.18 25.71 5.05 25.54 5.05 Z M 20.1 4.02 C 19.93 4.02 19.8 4.15 19.8 4.31 C 19.8 4.47 19.93 4.6 20.1 4.6 L 25.54 4.6 C 25.71 4.6 25.84 4.47 25.84 4.31 C 25.84 4.15 25.71 4.02 25.54 4.02 Z"
              fill="currentColor" stroke="none" pointer-events="all"/>
    </g>
</svg>