<svg xmlns="http://www.w3.org/2000/svg" xmlns:xlink="http://www.w3.org/1999/xlink" version="1.1"
     viewBox="-4 -4 30 30" width="25">
    <defs/>
    <g>
        <circle cx="12" cy="11" r="15" fill="white"/>
        <rect x="0.03" y="0.28" width="23.94" height="19.44" fill="none" stroke="none" pointer-events="all"/>
        <path d="M 23.71 9.96 C 23.61 9.05 23.61 9.18 23.24 8.2 C 22.86 7.21 22.07 5.27 21.5 4.12 C 20.91 2.96 20.29 1.97 19.84 1.36 C 19.4 0.75 19.28 0.7 18.86 0.52 C 18.42 0.35 17.86 0.38 17.3 0.35 C 16.75 0.3 16.17 0.28 15.55 0.28 L 8.5 0.28 C 7.87 0.28 7.28 0.3 6.72 0.35 C 6.16 0.38 5.58 0.35 5.16 0.52 C 4.73 0.69 4.61 0.74 4.17 1.36 C 3.71 1.97 3.1 2.96 2.52 4.12 C 1.95 5.27 1.15 7.21 0.78 8.2 C 0.41 9.18 0.39 9.05 0.3 9.95 C 0.21 10.87 0.03 12.59 0.21 13.56 C 0.38 14.49 0.81 15.12 1.34 15.57 C 1.87 16.02 2.54 16.26 3.37 16.28 C 3.32 17.23 3.32 17.98 3.37 18.51 C 3.39 19.04 3.35 19.28 3.6 19.48 C 3.86 19.67 4.52 19.68 4.93 19.7 C 5.32 19.72 5.75 19.71 5.96 19.57 C 6.17 19.41 6.11 19.28 6.15 18.73 C 6.18 18.16 6.21 17.34 6.2 16.23 L 17.75 16.23 C 17.78 17.35 17.81 18.17 17.87 18.73 C 17.91 19.28 17.85 19.4 18.05 19.57 C 18.27 19.71 18.68 19.72 19.09 19.7 C 19.48 19.68 20.14 19.67 20.41 19.48 C 20.65 19.28 20.61 19.04 20.65 18.51 C 20.69 17.98 20.69 17.23 20.65 16.28 C 21.47 16.26 22.15 16.02 22.68 15.57 C 23.2 15.12 23.63 14.49 23.81 13.56 C 23.97 12.59 23.81 10.87 23.71 9.96 Z M 3.63 13.91 C 2.41 13.91 1.42 12.98 1.42 11.84 C 1.42 10.71 2.41 9.78 3.63 9.78 C 4.86 9.78 5.85 10.71 5.85 11.84 C 5.85 12.98 4.86 13.91 3.63 13.91 Z M 15.16 13.51 L 8.86 13.51 C 8.21 13.51 7.67 13.18 7.67 12.76 C 7.67 12.35 8.21 12.02 8.86 12.02 L 15.16 12.02 C 15.82 12.02 16.35 12.35 16.35 12.76 C 16.35 13.18 15.82 13.51 15.16 13.51 Z M 15.16 11.49 L 8.86 11.49 C 8.21 11.49 7.67 11.16 7.67 10.75 C 7.67 10.33 8.21 10 8.86 10 L 15.16 10 C 15.82 10 16.35 10.33 16.35 10.75 C 16.35 11.16 15.82 11.49 15.16 11.49 Z M 16.17 7.59 C 14.33 7.6 9.59 7.6 7.77 7.59 C 5.97 7.58 6.13 7.6 5.41 7.54 C 4.69 7.48 3.85 7.43 3.48 7.24 C 3.12 7.03 3.16 6.79 3.24 6.36 C 3.33 5.91 3.63 5.25 3.95 4.6 C 4.26 3.94 4.71 2.96 5.04 2.45 C 5.34 1.94 5.49 1.76 5.84 1.57 C 6.18 1.38 6.6 1.35 7.06 1.31 C 7.52 1.26 8.02 1.25 8.57 1.27 L 15.44 1.27 C 15.99 1.25 16.49 1.26 16.95 1.31 C 17.4 1.35 17.83 1.38 18.18 1.57 C 18.52 1.76 18.65 1.94 18.98 2.45 C 19.3 2.96 19.74 3.94 20.06 4.6 C 20.36 5.25 20.68 5.91 20.77 6.36 C 20.85 6.79 20.89 7.03 20.53 7.24 C 20.16 7.43 19.33 7.48 18.6 7.54 C 17.87 7.6 17.97 7.58 16.17 7.59 Z M 20.39 13.91 C 19.16 13.91 18.17 12.98 18.17 11.84 C 18.17 10.71 19.16 9.78 20.39 9.78 C 21.61 9.78 22.6 10.71 22.6 11.84 C 22.6 12.98 21.61 13.91 20.39 13.91 Z"
              fill="currentColor" stroke="none" pointer-events="all"/>
    </g>
</svg>